<?xml version="1.0" standalone="no"?>
<!DOCTYPE svg PUBLIC "-//W3C//DTD SVG 20010904//EN"
 "http://www.w3.org/TR/2001/REC-SVG-20010904/DTD/svg10.dtd">
<svg version="1.0" xmlns="http://www.w3.org/2000/svg"
 width="400.000000pt" height="400.000000pt" viewBox="0 0 400.000000 400.000000"
 preserveAspectRatio="xMidYMid meet">
<metadata>
Created by potrace 1.14, written by Peter Selinger 2001-2017
</metadata>
<g transform="translate(0.000000,400.000000) scale(0.100000,-0.100000)"
fill="#000000" stroke="none">
<path d="M1830 3533 c-19 -2 -86 -15 -148 -29 -63 -13 -116 -24 -118 -24 -3 0
-2 -9 1 -20 4 -14 2 -20 -9 -20 -9 0 -21 -9 -28 -21 -7 -11 -44 -41 -81 -66
-119 -79 -169 -185 -187 -390 -20 -237 -19 -263 7 -301 21 -31 23 -46 23 -143
0 -60 -4 -109 -8 -109 -5 0 -21 31 -36 70 -15 38 -32 73 -38 76 -12 8 -36 -21
-73 -89 l-27 -48 27 -84 c15 -47 31 -88 35 -90 10 -6 44 40 54 72 4 13 3 30
-2 39 -6 12 -9 8 -9 -16 0 -18 -8 -40 -19 -51 -20 -20 -20 -19 -44 57 l-24 76
33 64 c18 35 37 64 41 64 11 0 88 -220 93 -265 3 -32 4 -29 5 18 1 31 7 57 12
57 6 0 10 -10 10 -22 1 -35 34 -102 66 -133 16 -15 54 -39 84 -53 50 -24 66
-26 185 -27 149 0 188 10 246 62 46 41 47 38 24 -80 -17 -90 -24 -105 -76
-168 -27 -32 -39 -57 -39 -77 0 -29 21 -62 41 -62 5 0 0 9 -11 20 -28 28 -25
43 22 97 62 72 78 117 87 246 5 61 13 124 19 140 12 29 25 32 105 21 44 -6 47
-9 53 -43 16 -86 68 -146 155 -176 71 -25 182 -36 260 -25 114 16 177 60 225
157 24 47 24 47 19 13 -2 -19 -27 -161 -55 -315 l-51 -280 -237 -235 c-131
-129 -257 -248 -281 -265 -42 -29 -49 -30 -150 -30 -122 0 -171 14 -214 59
-43 45 -316 373 -392 471 -65 82 -66 85 -75 167 -5 46 -11 103 -13 128 -3 34
-4 29 -5 -20 -1 -36 3 -96 8 -133 9 -64 16 -76 84 -165 l74 -97 -14 -160 c-15
-183 -16 -229 -5 -202 6 17 8 16 27 -5 13 -15 39 -92 73 -221 28 -109 56 -208
61 -220 8 -21 9 -20 9 6 1 44 -35 213 -64 297 l-25 75 88 -88 c70 -70 98 -91
137 -102 57 -18 173 -19 245 -4 70 15 133 70 332 288 90 99 165 178 166 176 2
-2 14 -117 27 -255 23 -247 35 -319 35 -207 0 61 -27 470 -35 526 -4 32 2 41
79 120 l84 86 32 185 c18 102 40 232 50 290 9 58 24 120 33 137 28 54 86 183
82 183 -2 0 -16 -22 -31 -50 -30 -56 -51 -64 -57 -22 l-4 27 -2 -27 c-1 -34
-13 -35 -44 -4 -39 39 -90 48 -288 53 -205 6 -279 -6 -323 -51 -19 -18 -28
-20 -52 -14 -16 5 -48 7 -71 6 -34 -2 -47 3 -64 21 -27 29 -91 58 -149 67 -24
4 -59 18 -78 30 -73 50 -196 46 -314 -9 -42 -20 -79 -41 -83 -46 -3 -6 -13
-11 -21 -11 -11 0 -14 14 -14 59 0 33 4 63 10 66 28 17 49 102 69 281 12 104
24 199 26 211 5 19 82 91 266 246 l56 47 61 -73 60 -73 134 -12 c73 -7 185
-15 250 -18 l116 -7 65 47 c36 25 69 46 74 46 4 -1 70 -60 146 -133 l139 -133
-1 -159 c-1 -88 -4 -175 -7 -192 l-6 -33 -74 66 c-59 53 -79 65 -99 62 -13 -3
-26 -2 -27 2 -3 5 -247 -58 -298 -77 -8 -4 -18 -5 -22 -5 -5 1 -8 -5 -8 -14 0
-8 -4 -12 -10 -9 -5 3 -10 0 -10 -7 0 -19 33 -108 40 -108 3 0 80 25 170 55
90 30 174 55 186 55 12 0 51 -9 87 -20 64 -20 64 -20 91 -81 14 -33 26 -70 27
-82 0 -12 7 14 15 57 9 50 23 91 38 110 45 61 72 351 41 447 -37 114 -149 281
-233 347 -89 71 -217 112 -427 136 -131 16 -360 26 -415 19z m-212 -1070 c-10
-2 -26 -2 -35 0 -10 3 -2 5 17 5 19 0 27 -2 18 -5z m31 -32 l104 -8 43 -46
c48 -50 55 -50 24 1 -11 18 -20 35 -20 37 0 12 39 3 87 -19 68 -32 75 -56 38
-131 -32 -67 -85 -102 -180 -118 -83 -14 -227 2 -291 33 -109 53 -151 223 -61
249 40 11 122 12 256 2z m687 -72 c-41 -37 -87 -104 -86 -126 1 -4 10 10 22
32 61 118 149 146 361 114 79 -12 112 -28 122 -58 11 -35 -15 -101 -57 -147
-56 -61 -117 -78 -252 -72 -168 9 -259 59 -286 159 -15 54 -10 78 20 100 25
18 102 36 169 38 l34 1 -47 -41z"/>
<path d="M1645 2388 c-6 -13 -18 -22 -28 -22 -22 2 -23 -29 -1 -50 20 -21 64
-21 64 -1 0 8 7 15 15 15 20 0 20 44 -1 64 -22 22 -38 20 -49 -6z"/>
<path d="M1578 2213 c6 -2 18 -2 25 0 6 3 1 5 -13 5 -14 0 -19 -2 -12 -5z"/>
<path d="M1753 2213 c9 -2 23 -2 30 0 6 3 -1 5 -18 5 -16 0 -22 -2 -12 -5z"/>
<path d="M2440 2340 c0 -18 -4 -21 -21 -17 -16 4 -20 1 -17 -15 2 -11 12 -27
23 -34 18 -12 24 -11 48 12 26 24 27 28 14 47 -20 31 -47 34 -47 7z"/>
<path d="M1533 2791 c-27 -5 -45 -23 -103 -103 -38 -54 -69 -98 -67 -98 2 0
35 16 74 35 39 19 82 35 95 35 12 0 99 -25 191 -56 93 -31 171 -53 174 -50 9
9 31 136 23 131 -4 -3 -10 4 -13 14 -3 14 -24 23 -83 36 -44 9 -117 28 -164
41 -46 13 -87 23 -90 23 -3 -1 -20 -4 -37 -8z"/>
<path d="M2905 2460 c-3 -6 1 -7 9 -4 18 7 21 14 7 14 -6 0 -13 -4 -16 -10z"/>
<path d="M2935 2435 c4 -11 16 -41 26 -67 l18 -47 -31 -71 -32 -72 -19 23
c-11 14 -17 34 -15 51 3 15 1 25 -4 22 -15 -9 -8 -59 13 -93 l21 -34 22 39
c13 21 31 61 41 87 16 41 16 53 5 87 -7 21 -22 51 -32 67 -12 17 -17 20 -13 8z"/>
<path d="M1304 2100 c0 -52 1 -74 3 -47 2 26 2 68 0 95 -2 26 -3 4 -3 -48z"/>
<path d="M1929 1802 c50 -64 72 -71 120 -39 22 15 45 36 51 47 8 15 -1 11 -35
-15 -47 -35 -69 -43 -80 -26 -3 5 -24 24 -48 43 l-42 33 34 -43z"/>
<path d="M2203 1803 c-24 -25 -17 -31 11 -10 11 8 17 18 15 23 -2 5 -14 -1
-26 -13z"/>
<path d="M1830 1454 c0 -3 26 -17 58 -32 70 -32 150 -35 235 -8 31 11 56 20
54 22 -2 2 -30 -1 -63 -7 -70 -13 -182 -6 -241 15 -24 8 -43 13 -43 10z"/>
<path d="M1443 1080 c0 -30 2 -43 4 -27 2 15 2 39 0 55 -2 15 -4 2 -4 -28z"/>
<path d="M2465 1060 c-4 -19 -34 -125 -66 -234 -32 -110 -57 -201 -55 -203 8
-8 57 112 80 194 31 109 59 250 53 266 -2 7 -7 -4 -12 -23z"/>
<path d="M1433 955 c0 -27 2 -38 4 -22 2 15 2 37 0 50 -2 12 -4 0 -4 -28z"/>
<path d="M1820 887 c0 -3 7 -24 15 -48 27 -75 94 -129 162 -129 25 0 24 2 -18
28 -24 16 -70 57 -101 91 -32 34 -58 60 -58 58z"/>
</g>
</svg>
